<svg xmlns="http://www.w3.org/2000/svg" width="390" height="98" viewBox="0 0 390 98">
    <g fill="none" fill-rule="evenodd">
        <g>
            <g>
                <path fill="#20263D" d="M.4 28.098H14.25l.132 65.824H.4V28.098zM0 17.145h14.779V4.613H0v12.532z" transform="translate(-525 -391) translate(526 392)"/>
                <path stroke="#20263D" stroke-width="1.21" d="M.4 28.098H14.25l.132 65.824H.4V28.098zM0 17.145h14.779V4.613H0v12.532z" transform="translate(-525 -391) translate(526 392)"/>
                <path fill="#20263D" d="M48.748 28.159c5.673-1.273 11.101-1.91 16.292-1.91 9.235 0 16.048 1.933 20.448 5.805 4.396 3.872 6.596 9.89 6.596 18.073v43.794H78.232V51.978c0-9.238-5.234-13.855-15.698-13.855-5.013 0-9.809.834-14.38 2.502v53.296H34.3V33.106c3.962-2.022 8.777-3.667 14.45-4.947" transform="translate(-525 -391) translate(526 392)"/>
                <path stroke="#20263D" stroke-width="1.21" d="M48.748 28.159c5.673-1.273 11.101-1.91 16.292-1.91 9.235 0 16.048 1.933 20.448 5.805 4.396 3.872 6.596 9.89 6.596 18.073v43.794H78.232V51.978c0-9.238-5.234-13.855-15.698-13.855-5.013 0-9.809.834-14.38 2.502v53.296H34.3V33.106c3.962-2.022 8.777-3.667 14.45-4.947z" transform="translate(-525 -391) translate(526 392)"/>
                <path fill="#20263D" d="M117.478 87.193c-6.204-5.359-9.3-14.027-9.3-25.985 0-12.315 3.053-21.22 9.168-26.714 6.11-5.494 13.87-8.245 23.284-8.245 7.124 0 13.894 1.32 20.316 3.954v12.408c-6.69-2.82-12.8-4.229-18.337-4.229-6.95 0-12.137 1.742-15.567 5.215-3.43 3.476-5.145 8.994-5.145 16.556 0 7.911 1.669 13.7 5.013 17.347 3.34 3.651 8.707 5.471 16.094 5.471 5.98 0 12.005-1.447 18.07-4.35v12.397c-6.333 2.821-13.103 4.222-20.312 4.222-9.324 0-17.084-2.681-23.284-8.047" transform="translate(-525 -391) translate(526 392)"/>
                <path stroke="#20263D" stroke-width="1.21" d="M117.478 87.193c-6.204-5.359-9.3-14.027-9.3-25.985 0-12.315 3.053-21.22 9.168-26.714 6.11-5.494 13.87-8.245 23.284-8.245 7.124 0 13.894 1.32 20.316 3.954v12.408c-6.69-2.82-12.8-4.229-18.337-4.229-6.95 0-12.137 1.742-15.567 5.215-3.43 3.476-5.145 8.994-5.145 16.556 0 7.911 1.669 13.7 5.013 17.347 3.34 3.651 8.707 5.471 16.094 5.471 5.98 0 12.005-1.447 18.07-4.35v12.397c-6.333 2.821-13.103 4.222-20.312 4.222-9.324 0-17.084-2.681-23.284-8.047z" transform="translate(-525 -391) translate(526 392)"/>
                <path fill="#20263D" d="M223.473 60.813c0-7.737-1.45-13.518-4.353-17.347-2.902-3.826-7.523-5.743-13.852-5.743-6.425 0-11.015 1.964-13.785 5.875-2.77 3.915-4.156 9.653-4.156 17.215 0 7.562 1.428 13.343 4.288 17.348 2.855 4 7.406 6.002 13.653 6.002 12.137 0 18.205-7.783 18.205-23.35m-41.884 26.12c-5.324-5.979-7.985-14.685-7.985-26.12 0-23.129 10.553-34.69 31.664-34.69 10.64 0 18.64 2.96 24.01 8.904 5.362 5.932 8.043 14.526 8.043 25.786 0 11.26-2.77 19.916-8.307 25.985C223.474 92.87 215.6 95.9 205.4 95.9c-10.553 0-18.492-2.988-23.811-8.967" transform="translate(-525 -391) translate(526 392)"/>
                <path stroke="#20263D" stroke-width="1.21" d="M223.473 60.813c0-7.737-1.45-13.518-4.353-17.347-2.902-3.826-7.523-5.743-13.852-5.743-6.425 0-11.015 1.964-13.785 5.875-2.77 3.915-4.156 9.653-4.156 17.215 0 7.562 1.428 13.343 4.288 17.348 2.855 4 7.406 6.002 13.653 6.002 12.137 0 18.205-7.783 18.205-23.35zm-41.884 26.12c-5.324-5.979-7.985-14.685-7.985-26.12 0-23.129 10.553-34.69 31.664-34.69 10.64 0 18.64 2.96 24.01 8.904 5.362 5.932 8.043 14.526 8.043 25.786 0 11.26-2.77 19.916-8.307 25.985C223.474 92.87 215.6 95.9 205.4 95.9c-10.553 0-18.492-2.988-23.811-8.967z" transform="translate(-525 -391) translate(526 392)"/>
                <path fill="#20263D" d="M297.348 41.815c-2.11-1.226-4.462-2.177-7.057-2.833-2.596-.66-5.126-.993-7.586-.993-12.49 0-18.736 7.434-18.736 22.295 0 7.387 1.408 13.168 4.225 17.343 2.813 4.187 7.737 6.27 14.775 6.27 4.043 0 7.454-.477 10.224-1.447 2.77-.97 4.155-2.243 4.155-3.83V41.815zM311.068 0v79.94c0 3.515-1.451 6.487-4.353 8.904-2.902 2.417-6.554 4.198-10.95 5.343-4.4 1.145-8.927 1.711-13.587 1.711-9.413 0-17.15-2.658-23.222-7.977-6.065-5.32-9.099-14.62-9.099-27.905 0-10.64 2.596-18.942 7.784-24.93 5.191-5.978 12.881-8.966 23.086-8.966 2.374 0 5.121.303 8.245.916 3.123.625 5.913 1.548 8.376 2.774V0h13.72z" transform="translate(-525 -391) translate(526 392)"/>
                <path stroke="#20263D" stroke-width="1.21" d="M297.348 41.815c-2.11-1.226-4.462-2.177-7.057-2.833-2.596-.66-5.126-.993-7.586-.993-12.49 0-18.736 7.434-18.736 22.295 0 7.387 1.408 13.168 4.225 17.343 2.813 4.187 7.737 6.27 14.775 6.27 4.043 0 7.454-.477 10.224-1.447 2.77-.97 4.155-2.243 4.155-3.83V41.815zM311.068 0v79.94c0 3.515-1.451 6.487-4.353 8.904-2.902 2.417-6.554 4.198-10.95 5.343-4.4 1.145-8.927 1.711-13.587 1.711-9.413 0-17.15-2.658-23.222-7.977-6.065-5.32-9.099-14.62-9.099-27.905 0-10.64 2.596-18.942 7.784-24.93 5.191-5.978 12.881-8.966 23.086-8.966 2.374 0 5.121.303 8.245.916 3.123.625 5.913 1.548 8.376 2.774V0h13.72z" transform="translate(-525 -391) translate(526 392)"/>
                <path fill="#20263D" d="M346.553 41.156c-2.638 2.463-4.353 6.638-5.144 12.532h32.06c-.62-5.63-2.204-9.735-4.753-12.335-2.55-2.591-6.29-3.887-11.213-3.887-4.664 0-8.311 1.226-10.95 3.69m33.97-5.08c4.792 6.64 7.147 15.94 7.058 27.906h-46.436c.442 6.51 2.351 11.45 5.738 14.837 3.384 3.387 8.199 5.079 14.45 5.079 4.042 0 7.91-.5 11.604-1.517 3.694-1.01 6.95-2.313 9.763-3.888v12.92c-6.86 2.996-14.729 4.485-23.614 4.485-9.94 0-17.743-3.007-23.416-9.032-5.673-6.022-8.509-14.581-8.509-25.659 0-11.345 2.681-20.028 8.047-26.054 5.362-6.025 12.928-9.032 22.69-9.032 10.29 0 17.833 3.317 22.625 9.956" transform="translate(-525 -391) translate(526 392)"/>
                <path stroke="#20263D" stroke-width="1.21" d="M346.553 41.156c-2.638 2.463-4.353 6.638-5.144 12.532h32.06c-.62-5.63-2.204-9.735-4.753-12.335-2.55-2.591-6.29-3.887-11.213-3.887-4.664 0-8.311 1.226-10.95 3.69zm33.97-5.08c4.792 6.64 7.147 15.94 7.058 27.906h-46.436c.442 6.51 2.351 11.45 5.738 14.837 3.384 3.387 8.199 5.079 14.45 5.079 4.042 0 7.91-.5 11.604-1.517 3.694-1.01 6.95-2.313 9.763-3.888v12.92c-6.86 2.996-14.729 4.485-23.614 4.485-9.94 0-17.743-3.007-23.416-9.032-5.673-6.022-8.509-14.581-8.509-25.659 0-11.345 2.681-20.028 8.047-26.054 5.362-6.025 12.928-9.032 22.69-9.032 10.29 0 17.833 3.317 22.625 9.956z" transform="translate(-525 -391) translate(526 392)"/>
            </g>
        </g>
    </g>
</svg>
